<svg xmlns="http://www.w3.org/2000/svg" viewBox="0 0 44.595 45.845">
  <defs>
    <style>
      .cls-1, .cls-3 {
        fill: #2572bc;
      }

      .cls-2 {
        fill: #fff;
      }

      .cls-3 {
        font-size: 20px;
        font-family: Mangal-Bold, Mangal;
        font-weight: 700;
      }
    </style>
  </defs>
  <g id="Group_180" data-name="Group 180" transform="translate(-82 -610.927)">
    <path id="ic_settings_24px" class="cls-1" d="M42.642,27.169c.092-.734-.877-1.467-.877-2.246a17.864,17.864,0,0,0-.16-2.246l4.837-3.782a1.156,1.156,0,0,0,.275-1.467L42.132,9.5a1.152,1.152,0,0,0-1.4-.5l-5.708,2.292a16.748,16.748,0,0,0-3.874-2.246l-.871-6.075A1.118,1.118,0,0,0,29.157,2H19.988a1.118,1.118,0,0,0-1.123.963l-.871,6.075a17.611,17.611,0,0,0-3.874,2.246L8.412,8.991a1.118,1.118,0,0,0-1.4.5L2.43,17.427A1.13,1.13,0,0,0,2.7,18.894l4.837,3.782a18.179,18.179,0,0,0-.16,2.246,18.179,18.179,0,0,0,.16,2.246L2.7,30.951a1.156,1.156,0,0,0-.275,1.467L7.014,40.35a1.152,1.152,0,0,0,1.4.5l5.708-2.292a16.747,16.747,0,0,0,3.874,2.246l.871,6.075a1.118,1.118,0,0,0,1.123.963h9.169a1.118,1.118,0,0,0,1.123-.963l.871-6.075a17.611,17.611,0,0,0,3.874-2.246l5.708,2.292a1.118,1.118,0,0,0,1.4-.5l4.585-7.931a1.156,1.156,0,0,0-.275-1.467ZM25.61,32.946a8.023,8.023,0,1,1,8.023-8.023A8.032,8.032,0,0,1,25.61,32.946Z" transform="translate(79.729 608.927)"/>
    <g id="Group_179" data-name="Group 179" transform="translate(0.49 0.138)">
      <circle id="Ellipse_6" data-name="Ellipse 6" class="cls-2" cx="14.519" cy="14.519" r="14.519" transform="translate(89.26 619.224)"/>
      <text id="रु" class="cls-3" transform="translate(97.556 642.112)"><tspan x="0" y="0">रु</tspan></text>
    </g>
  </g>
</svg>
