<svg id="if_wrench_416405" xmlns="http://www.w3.org/2000/svg" viewBox="0 0 45.857 45.857">
  <defs>
    <style>
      .cls-1 {
        fill: #2572bc;
      }

      .cls-2 {
        fill: #2873bb;
      }

      .cls-3 {
        fill: #ededed;
      }

      .cls-4 {
        fill: #e1e1e1;
      }

      .cls-5 {
        fill: #f4f4f4;
      }

      .cls-6 {
        fill: #d6d6d6;
      }

      .cls-7 {
        fill: #b8bcbe;
      }
    </style>
  </defs>
  <path id="Path_14" data-name="Path 14" class="cls-1" d="M22.929,0A22.929,22.929,0,1,1,0,22.929,22.929,22.929,0,0,1,22.929,0Z"/>
  <path id="Path_15" data-name="Path 15" class="cls-2" d="M38.727,30.566a.847.847,0,0,0-.767.23l-6.522,6.651c-.658.659-2.868.177-4.356-.4-.581-1.488-1.062-3.7-.406-4.356L33.359,26.2a.84.84,0,0,0-.284-1.377A11.2,11.2,0,0,0,17.994,37.669c-.105,1.807-1.748,3.924-2.6,4.787L8.87,48.968a23.039,23.039,0,0,0,6.249,6.113l6.217-6.205a10.633,10.633,0,0,1,5.02-2.664c.271.017.83.055.955.082v-.011a11.181,11.181,0,0,0,12.031-15.2A.843.843,0,0,0,38.727,30.566Z" transform="translate(-4.802 -13.007)"/>
  <path id="Path_16" data-name="Path 16" class="cls-3" d="M38.5,29.566a.847.847,0,0,0-.767.23l-6.522,6.651c-.658.659-2.868.177-4.356-.4-.581-1.488-1.062-3.7-.406-4.356L33.136,25.2a.84.84,0,0,0-.284-1.377A11.2,11.2,0,0,0,17.771,36.669c-.105,1.807-1.748,3.924-2.6,4.787l-6.715,6.7a23.05,23.05,0,0,0,6.161,6.2l6.493-6.482a10.632,10.632,0,0,1,5.02-2.664c.271.017.83.055.955.082v-.011a11.181,11.181,0,0,0,12.031-15.2A.842.842,0,0,0,38.5,29.566Z" transform="translate(-4.579 -12.466)"/>
  <g id="Group_77" data-name="Group 77" transform="translate(6.668 17.542)">
    <path id="Path_17" data-name="Path 17" class="cls-4" d="M43.12,41.143a11.344,11.344,0,0,1,.078,1.495,11.181,11.181,0,0,0-.787-3.853.842.842,0,0,0-1.38-.285l-6.522,6.651c-.658.659-2.868.177-4.356-.4-.051-.13-.1-.266-.15-.407L14.541,59.8a23.011,23.011,0,0,0,3.372,2.8l6.493-6.482a10.633,10.633,0,0,1,5.02-2.664c.271.017.83.055.955.082v-.011A11.171,11.171,0,0,0,43.12,41.143Zm-.4-1.917-.067-.213Zm.373,1.71c-.018-.133-.038-.265-.061-.4Q43.067,40.737,43.094,40.936Zm-.147-.832-.08-.346Z" transform="translate(-14.541 -38.253)"/>
  </g>
  <path id="Path_18" data-name="Path 18" class="cls-5" d="M20.783,26.765a11.2,11.2,0,0,1,12.07-2.486.841.841,0,0,1,.5.561.828.828,0,0,0,.017-.408.845.845,0,0,0-.514-.612A11.2,11.2,0,0,0,17.5,34.338,11.15,11.15,0,0,1,20.783,26.765ZM15.173,41.456l-6.715,6.7.188.271,6.526-6.512c.849-.864,2.491-2.981,2.6-4.787l-.032-.166a9.651,9.651,0,0,1-2.565,4.494Z" transform="translate(-4.579 -12.466)"/>
  <path id="Path_19" data-name="Path 19" class="cls-6" d="M20.153,67.32l-7.248,7.248q.77.852,1.623,1.625l7.249-7.249a1.148,1.148,0,1,0-1.624-1.623Z" transform="translate(-6.987 -36.267)"/>
  <path id="Path_20" data-name="Path 20" class="cls-7" d="M20.153,67.32l-7.248,7.248.222.237,7.026-7.026a1.147,1.147,0,0,1,1.936.583,1.148,1.148,0,0,0-1.936-1.041Z" transform="translate(-6.987 -36.267)"/>
</svg>
